<?xml version="1.0" encoding="utf-8" standalone="yes"?>
<!DOCTYPE svg PUBLIC "-//W3C//DTD SVG 1.1//EN" "http://www.w3.org/Graphics/SVG/1.1/DTD/svg11.dtd">
<svg width="1020" height="827" viewBox="0 0 1020 827" style="fill:none;stroke:none;fill-rule:evenodd;clip-rule:evenodd;stroke-linecap:round;stroke-linejoin:round;stroke-miterlimit:1.5;" version="1.1" xmlns="http://www.w3.org/2000/svg" xmlns:xlink="http://www.w3.org/1999/xlink"><style class="text-font-style fontImports" data-font-family="Roboto">@import url(https://fonts.googleapis.com/css2?family=Roboto:wght@400;700&amp;amp;display=block);</style><g id="items" style="isolation: isolate"><g id="blend" style="mix-blend-mode: normal"><g id="g-root-cp_4_g-4_1lwrso114km9sd-fill" data-item-order="-710522" transform="translate(37.921875, 175)"><g id="cp_4_g-4_1lwrso114km9sd-fill-merged" stroke="none" fill="#3e4e69"><g><path d="M694.08 16C694.08 19.31 691.39 22 688.08 22C684.77 22 682.08 19.31 682.08 16C682.08 12.69 684.77 10 688.08 10C691.39 10 694.08 12.69 694.08 16 M250.01 495.66C117.67 495.66 10.01 387.99 10 255.65C10 123.31 117.67 15.65 250.01 15.64 H473.49C461.62 15.97 451.29 19.89 443.07 26.15C420.63 43.21 413.88 77.53 434.58 102.42C440 108.95 445.09 115.76 449.8 122.83L297.97 82.14C203.41 56.8 103.07 112.81 76.67 207.07C49.21 305.16 108.81 406.96 208.26 430.73C303.43 453.46 398.6 396.68 423.89 302.15C430.8 276.32 431.7 250.28 427.45 225.5C434.28 226.16 441.15 228.16 447.72 231.67L458.09 237.2L426.16 218.77C425.11 213.78 423.85 208.86 422.38 204.01C413.26 173.72 430.85 144.57 457.44 135.07C478.14 170.52 490 211.72 490 255.64C490 387.98 382.33 495.64 249.99 495.65 M474.16 15.66L677.72 16"></path></g></g></g><g id="g-root-cp_3_g-3_18lxrdt14km87i-fill" data-item-order="-710518" transform="translate(97.90623474121094, 241.076171875)"><g id="cp_3_g-3_18lxrdt14km87i-fill-merged" stroke="none" fill="#344e57"><g><path d="M652.094 135.924C655.408 135.924 658.094 133.238 658.094 129.924C658.094 126.61 655.408 123.924 652.094 123.924C648.78 123.924 646.094 126.61 646.094 129.924C646.094 133.238 648.78 135.924 652.094 135.924 M148.284 364.684C48.834 340.914 -10.766 239.104 16.694 141.024C43.094 46.764 143.424 -9.246 237.994 16.094L429.324 67.364C418.084 64.694 407.174 65.544 397.464 69.024C370.874 78.524 353.284 107.674 362.404 137.964C363.864 142.824 365.124 147.744 366.184 152.724L251.904 86.754C241.704 80.604 230.794 76.104 219.544 73.264C219.434 73.244 219.334 73.214 219.244 73.184C218.434 72.984 217.634 72.794 216.844 72.614C216.674 72.574 216.494 72.534 216.324 72.484C215.574 72.314 214.824 72.154 214.064 72.014C213.854 71.974 213.634 71.924 213.424 71.884C212.684 71.734 211.924 71.604 211.164 71.464C210.964 71.424 210.764 71.384 210.554 71.354C209.734 71.214 208.904 71.074 208.074 70.954C207.954 70.934 207.834 70.914 207.724 70.894C175.684 66.134 142.094 74.374 115.434 95.584C115.344 95.644 115.254 95.724 115.164 95.794C114.624 96.224 114.084 96.664 113.544 97.104C113.174 97.424 112.784 97.744 112.394 98.064C112.124 98.294 111.864 98.524 111.594 98.754C110.974 99.294 110.354 99.844 109.724 100.394C109.684 100.434 109.634 100.484 109.574 100.524C105.834 103.894 102.274 107.534 98.944 111.424C98.914 111.464 98.884 111.494 98.854 111.534C98.354 112.134 97.854 112.734 97.344 113.334C97.134 113.584 96.924 113.844 96.724 114.094C96.434 114.454 96.144 114.814 95.854 115.174C95.444 115.694 95.034 116.224 94.634 116.754C94.574 116.834 94.504 116.924 94.434 117.004C84.474 130.104 77.554 144.774 73.694 160.064C73.664 160.164 73.644 160.254 73.614 160.354C73.424 161.154 73.224 161.964 73.044 162.754C72.994 162.934 72.964 163.104 72.914 163.274C72.744 164.024 72.594 164.784 72.444 165.534C72.404 165.744 72.354 165.964 72.314 166.174C72.154 166.934 72.014 167.684 71.884 168.444C71.844 168.654 71.814 168.844 71.774 169.034C71.634 169.864 71.494 170.694 71.374 171.534C71.364 171.644 71.334 171.764 71.324 171.884C66.564 203.924 74.804 237.514 96.014 264.174C96.074 264.264 96.154 264.354 96.224 264.444C96.654 264.984 97.094 265.524 97.534 266.064C97.854 266.434 98.174 266.824 98.494 267.214C98.724 267.484 98.954 267.744 99.184 268.014C99.724 268.634 100.274 269.254 100.824 269.884C100.864 269.924 100.914 269.974 100.954 270.034C104.324 273.774 107.964 277.334 111.854 280.664C111.894 280.694 111.924 280.724 111.964 280.754C112.564 281.254 113.164 281.754 113.764 282.264C114.014 282.474 114.274 282.684 114.524 282.884C114.884 283.174 115.244 283.464 115.604 283.754C116.124 284.164 116.654 284.574 117.174 284.974C117.254 285.044 117.354 285.104 117.434 285.184C130.534 295.144 145.204 302.064 160.494 305.924C160.594 305.954 160.684 305.974 160.784 306.004C161.594 306.204 162.394 306.394 163.194 306.574C163.364 306.614 163.544 306.654 163.714 306.694C164.464 306.864 165.224 307.014 165.974 307.174C166.184 307.214 166.394 307.264 166.604 307.294C167.364 307.454 168.114 307.594 168.874 307.724C169.074 307.764 169.274 307.794 169.464 307.834C170.294 307.974 171.124 308.114 171.964 308.234C172.074 308.244 172.194 308.274 172.314 308.284C204.354 313.044 237.944 304.804 264.594 283.594C264.694 283.524 264.784 283.444 264.874 283.364C265.414 282.944 265.944 282.504 266.484 282.064C266.854 281.744 267.244 281.424 267.634 281.104C267.904 280.874 268.164 280.644 268.434 280.414C269.064 279.874 269.674 279.324 270.304 278.774C270.354 278.724 270.394 278.684 270.454 278.644C274.194 275.274 277.754 271.634 281.084 267.744C281.114 267.704 281.144 267.674 281.174 267.634C281.674 267.034 282.174 266.434 282.684 265.834C282.894 265.584 283.104 265.324 283.304 265.074L284.174 263.994C284.584 263.474 284.994 262.944 285.394 262.424C285.464 262.344 285.524 262.244 285.604 262.164C294.744 250.144 301.314 236.824 305.304 222.894C309.054 225.164 312.614 227.884 315.894 231.064L329.404 244.134L305.924 220.654C306.064 220.144 306.204 219.624 306.334 219.114C306.364 219.014 306.394 218.914 306.414 218.814C306.614 218.004 306.804 217.204 306.984 216.414C307.024 216.244 307.064 216.064 307.114 215.894C307.284 215.144 307.444 214.394 307.584 213.634C307.624 213.424 307.674 213.204 307.714 212.994C307.864 212.254 308.004 211.484 308.134 210.734C308.174 210.534 308.214 210.334 308.244 210.124C308.384 209.304 308.524 208.474 308.644 207.654C308.664 207.534 308.684 207.414 308.704 207.304C308.754 206.984 308.794 206.664 308.834 206.334C312.444 176.244 339.654 156.784 367.464 159.474C371.704 184.254 370.804 210.294 363.904 236.124C338.614 330.654 243.444 387.434 148.274 364.704 M429.324 67.354L642.094 127.244"></path></g></g></g><g id="g-root-cp_2_g-2_hzn7q914km87j-fill" data-item-order="-710514" transform="translate(157.93362426757812, 300.642578125)"><g id="cp_2_g-2_hzn7q914km87j-fill-merged" stroke="none" fill="#3b5649"><g><path d="M568.067 245.054C571.381 245.054 574.067 242.359 574.067 239.036C574.067 235.712 571.381 233.018 568.067 233.018C564.753 233.018 562.067 235.712 562.067 239.036C562.067 242.359 564.753 245.054 568.067 245.054 M248.817 147.154C248.777 147.485 248.737 147.805 248.687 148.126C248.677 148.237 248.647 148.357 248.627 148.478C248.507 149.31 248.377 150.132 248.227 150.955C248.187 151.165 248.157 151.366 248.117 151.567C247.987 152.319 247.847 153.081 247.697 153.833C247.657 154.044 247.607 154.265 247.567 154.475C247.417 155.237 247.267 155.99 247.097 156.742C247.057 156.913 247.017 157.093 246.967 157.263C246.787 158.066 246.597 158.868 246.397 159.671C246.367 159.771 246.337 159.871 246.317 159.971C246.187 160.493 246.047 161.005 245.907 161.516L173.117 88.51C149.467 64.79 110.817 64.218 87.307 88.089C63.517 112.25 64.257 151.607 89.547 174.815C112.797 196.159 149.147 195.587 171.767 173.572C172.067 173.281 172.367 172.98 172.667 172.689C192.237 152.85 222.417 149.872 245.287 163.763C241.297 177.734 234.727 191.094 225.587 203.149C225.517 203.23 225.457 203.33 225.377 203.41C224.977 203.932 224.567 204.463 224.157 204.985L223.287 206.068C223.087 206.319 222.877 206.58 222.667 206.83C222.167 207.432 221.667 208.034 221.157 208.636C221.117 208.676 221.097 208.696 221.067 208.746C217.727 212.648 214.177 216.298 210.437 219.678C210.377 219.719 210.337 219.759 210.287 219.809C209.667 220.36 209.047 220.912 208.417 221.454C208.147 221.684 207.887 221.915 207.617 222.146C207.237 222.477 206.847 222.788 206.467 223.109C205.927 223.55 205.397 223.991 204.857 224.412C204.767 224.493 204.677 224.573 204.577 224.643C177.927 245.916 144.327 254.171 112.297 249.406C112.187 249.396 112.067 249.366 111.947 249.356C111.117 249.226 110.287 249.096 109.447 248.955C109.257 248.915 109.067 248.885 108.857 248.845C108.097 248.714 107.347 248.574 106.587 248.413C106.377 248.373 106.167 248.333 105.957 248.293C105.197 248.133 104.447 247.982 103.697 247.812C103.527 247.772 103.347 247.732 103.177 247.691C102.367 247.511 101.567 247.32 100.767 247.12C100.667 247.09 100.577 247.069 100.477 247.039C85.187 243.168 70.527 236.227 57.417 226.238C57.337 226.168 57.237 226.107 57.157 226.027C56.637 225.626 56.107 225.215 55.587 224.804C55.227 224.513 54.867 224.222 54.507 223.931C54.257 223.73 53.997 223.52 53.747 223.309C53.147 222.808 52.547 222.306 51.947 221.795C51.907 221.755 51.887 221.734 51.837 221.704C47.947 218.354 44.307 214.794 40.937 211.043C40.897 210.983 40.847 210.932 40.807 210.892C40.257 210.27 39.707 209.649 39.167 209.017C38.937 208.746 38.707 208.485 38.477 208.214C38.147 207.833 37.837 207.442 37.517 207.061C37.077 206.519 36.637 205.988 36.207 205.436C36.137 205.356 36.057 205.256 35.997 205.165C14.787 178.426 6.547 144.736 11.307 112.601C11.317 112.491 11.347 112.371 11.357 112.25C11.487 111.418 11.617 110.585 11.757 109.743C11.797 109.552 11.827 109.362 11.867 109.151C11.997 108.389 12.137 107.636 12.297 106.874C12.337 106.664 12.377 106.453 12.427 106.232C12.587 105.48 12.727 104.718 12.897 103.966C12.937 103.795 12.977 103.615 13.027 103.444C13.207 102.642 13.397 101.829 13.597 101.037C13.627 100.937 13.647 100.846 13.677 100.746C17.537 85.411 24.457 70.707 34.417 57.558C34.487 57.478 34.547 57.378 34.617 57.307C35.017 56.776 35.427 56.254 35.837 55.723C36.127 55.362 36.417 55.001 36.707 54.64C36.907 54.389 37.117 54.128 37.327 53.877C37.827 53.276 38.327 52.674 38.837 52.072C38.877 52.032 38.897 52.012 38.927 51.962C42.267 48.06 45.817 44.409 49.557 41.029C49.617 40.989 49.667 40.939 49.707 40.899C50.327 40.347 50.947 39.796 51.577 39.254C51.847 39.023 52.107 38.793 52.377 38.562C52.757 38.231 53.147 37.92 53.527 37.599C54.067 37.158 54.597 36.716 55.147 36.285C55.227 36.215 55.327 36.135 55.417 36.075C82.077 14.802 115.667 6.537 147.707 11.311C147.817 11.321 147.937 11.351 148.057 11.371C148.887 11.492 149.707 11.622 150.537 11.773C150.747 11.813 150.947 11.843 151.147 11.883C151.907 12.013 152.657 12.154 153.407 12.304C153.617 12.344 153.837 12.394 154.047 12.435C154.807 12.585 155.557 12.735 156.307 12.906C156.477 12.946 156.657 12.986 156.827 13.036C157.627 13.217 158.427 13.407 159.227 13.608C159.327 13.638 159.427 13.668 159.527 13.688C170.767 16.537 181.687 21.05 191.887 27.218L338.097 111.869L327.727 106.323C321.157 102.802 314.287 100.796 307.457 100.134C279.647 97.436 252.447 116.954 248.827 147.133 M338.087 111.89L559.137 233.861"></path></g></g></g><g id="g-root-cp_1_g-1_1lyn7xd14km8so-fill" data-item-order="-710510" transform="translate(217.93753051757812, 360.923828125)"><g id="cp_1_g-1_1lyn7xd14km8so-fill-merged" stroke="none" fill="#545454"><g><path d="M424.061 339.152C427.375 339.152 430.061 336.473 430.061 333.169C430.061 329.865 427.375 327.186 424.061 327.186C420.748 327.186 418.061 329.865 418.061 333.169C418.061 336.473 420.748 339.152 424.061 339.152 M113.112 27.955C89.462 4.372 50.812 3.803 27.302 27.536C3.512 51.559 4.252 90.689 29.542 113.764C52.792 134.985 89.142 134.416 111.762 112.528C112.062 112.239 112.362 111.94 112.662 111.65C132.232 91.926 162.412 88.964 185.282 102.775C189.032 105.039 192.592 107.751 195.872 110.922L209.382 123.956L113.112 27.955 M197.272 111.87L416.741 325.869"></path></g></g></g><g id="g-root-tx_systemar_18nt6n514km77t-fill" data-item-order="0" transform="translate(380, 38)"><g id="tx_systemar_18nt6n514km77t-fill-merged" stroke="none" fill="#f4f4f4"><g><text style="font: bold 25px &quot;Roboto&quot;, sans-serif; white-space: pre;" font-weight="bold" font-size="25px" font-family="'Roboto', sans-serif"><tspan x="15.06" y="43.2" dominant-baseline="ideographic">System Architecture</tspan></text></g></g></g><g id="g-root-tx_applicat_24gdd14kp0jk-fill" data-item-order="0" transform="translate(734, 169)"><g id="tx_applicat_24gdd14kp0jk-fill-merged" stroke="none" fill="#4f91fc"><g><text style="font: 20px &quot;Roboto&quot;, sans-serif; white-space: pre;" font-size="20px" font-family="'Roboto', sans-serif"><tspan x="12" y="34" dominant-baseline="ideographic">Applications &amp; Tools</tspan></text></g></g></g><g id="g-root-tx_userleve_1uonye914kp2ix-fill" data-item-order="0" transform="translate(734, 205)"><g id="tx_userleve_1uonye914kp2ix-fill-merged" stroke="none" fill="#f4f4f4"><g><text style="font: 15px &quot;Roboto&quot;, sans-serif; white-space: pre;" font-size="15px" font-family="'Roboto', sans-serif"><tspan x="12" y="31.2" dominant-baseline="ideographic">User-level programs</tspan></text></g></g></g><g id="g-root-tx_shell_hvwd7l14knocs-fill" data-item-order="0" transform="translate(758, 349)"><g id="tx_shell_hvwd7l14knocs-fill-merged" stroke="none" fill="#1ac3fb"><g><text style="font: 20px &quot;Roboto&quot;, sans-serif; white-space: pre;" font-size="20px" font-family="'Roboto', sans-serif"><tspan x="12" y="34" dominant-baseline="ideographic">Shell</tspan></text></g></g></g><g id="g-root-tx_interfac_hxrsgx14knnd1-fill" data-item-order="0" transform="translate(758, 385)"><g id="tx_interfac_hxrsgx14knnd1-fill-merged" stroke="none" fill="#f4f4f4"><g><text style="font: 15px &quot;Roboto&quot;, sans-serif; white-space: pre;" font-size="15px" font-family="'Roboto', sans-serif"><tspan x="12" y="31.2" dominant-baseline="ideographic">Interface for user interaction</tspan></text></g></g></g><g id="g-root-tx_kernel_9407hd14knn5y-fill" data-item-order="0" transform="translate(734, 517)"><g id="tx_kernel_9407hd14knn5y-fill-merged" stroke="none" fill="#43dd93"><g><text style="font: 20px &quot;Roboto&quot;, sans-serif; white-space: pre;" font-size="20px" font-family="'Roboto', sans-serif"><tspan x="12" y="34" dominant-baseline="ideographic">Kernel</tspan></text></g></g></g><g id="g-root-tx_coreosma_4g2j8h14kp0r3-fill" data-item-order="0" transform="translate(734, 553)"><g id="tx_coreosma_4g2j8h14kp0r3-fill-merged" stroke="none" fill="#f4f4f4"><g><text style="font: 15px &quot;Roboto&quot;, sans-serif; white-space: pre;" font-size="15px" font-family="'Roboto', sans-serif"><tspan x="12" y="31.2" dominant-baseline="ideographic">Core OS managing resources</tspan></text></g></g></g><g id="g-root-tx_hardware_v48i5d14knmde-fill" data-item-order="0" transform="translate(650, 673)"><g id="tx_hardware_v48i5d14knmde-fill-merged" stroke="none" fill="#b7b7b7"><g><text style="font: 20px &quot;Roboto&quot;, sans-serif; white-space: pre;" font-size="20px" font-family="'Roboto', sans-serif"><tspan x="12" y="34" dominant-baseline="ideographic">Hardware</tspan></text></g></g></g><g id="g-root-tx_foundati_magx5t14knm6b-fill" data-item-order="0" transform="translate(650, 709)"><g id="tx_foundati_magx5t14knm6b-fill-merged" stroke="none" fill="#f4f4f4"><g><text style="font: 15px &quot;Roboto&quot;, sans-serif; white-space: pre;" font-size="15px" font-family="'Roboto', sans-serif"><tspan x="12" y="31.2" dominant-baseline="ideographic">Foundation of the system</tspan></text></g></g></g><g id="g-root-cp_4_g-4_1lwrso114km9sd-stroke" data-item-order="-710522" transform="translate(37.921875, 175)"><g id="cp_4_g-4_1lwrso114km9sd-stroke" fill="none" stroke-linecap="round" stroke-linejoin="round" stroke-miterlimit="4" stroke="#4f91fc" stroke-width="2"><g><path d="M 694.0796 16C 694.0796 19.31 691.3896 22 688.0796 22C 684.7696 22 682.0796 19.31 682.0796 16C 682.0796 12.69 684.7696 10 688.0796 10C 691.3896 10 694.0796 12.69 694.0796 16ZM 250.01 495.6601C 117.67 495.6601 10.01 387.9901 10 255.6501C 10 123.3102 117.67 15.6501 250.01 15.6401L 474.15 15.6401L 473.49 15.6401C 461.62 15.9701 451.29 19.8901 443.07 26.1501C 420.63 43.2101 413.88 77.5301 434.58 102.4201C 440 108.9501 445.09 115.7601 449.8 122.8301L 297.97 82.1401C 203.41 56.8001 103.07 112.8101 76.67 207.0701C 49.21 305.1601 108.81 406.9601 208.26 430.7301C 303.43 453.4601 398.6 396.6801 423.89 302.1501C 430.8 276.3201 431.7 250.2801 427.45 225.5001C 434.28 226.1601 441.15 228.1601 447.72 231.6701L 458.09 237.2001L 426.16 218.7701C 425.11 213.7801 423.85 208.8601 422.38 204.0101C 413.26 173.7201 430.85 144.5701 457.44 135.0701C 478.14 170.5201 490 211.7201 490 255.6401C 490 387.9801 382.33 495.6401 249.99 495.6501L 250.01 495.6601ZM 474.1602 15.6602L 677.7197 16"></path></g></g></g><g id="g-root-cp_3_g-3_18lxrdt14km87i-stroke" data-item-order="-710518" transform="translate(97.90623474121094, 241.076171875)"><g id="cp_3_g-3_18lxrdt14km87i-stroke" fill="none" stroke-linecap="round" stroke-linejoin="round" stroke-miterlimit="4" stroke="#1ac3fb" stroke-width="2"><g><path d="M 652.093815 135.9238C 655.407515 135.9238 658.093815 133.2375 658.093815 129.9238C 658.093815 126.6101 655.407515 123.9238 652.093815 123.9238C 648.780015 123.9238 646.093815 126.6101 646.093815 129.9238C 646.093815 133.2375 648.780015 135.9238 652.093815 135.9238ZM 148.284115 364.6837C 48.834215 340.9137 -10.765785 239.1038 16.694115 141.0238C 43.094115 46.7638 143.424115 -9.2462 237.994115 16.0938L 429.324115 67.3638C 418.084115 64.6938 407.174115 65.5438 397.464115 69.0238C 370.874115 78.5238 353.284115 107.6738 362.404115 137.9638C 363.864115 142.8238 365.124215 147.7437 366.184215 152.7237L 251.904115 86.7537C 241.704115 80.6037 230.794215 76.1037 219.544215 73.2637C 219.434215 73.2437 219.334115 73.2138 219.244115 73.1838C 218.434115 72.9838 217.634115 72.7938 216.844115 72.6138C 216.674115 72.5738 216.494215 72.5337 216.324215 72.4837C 215.574215 72.3137 214.824115 72.1537 214.064115 72.0137C 213.854115 71.9737 213.634115 71.9237 213.424115 71.8837C 212.684115 71.7337 211.924215 71.6038 211.164215 71.4638C 210.964215 71.4238 210.764115 71.3837 210.554115 71.3537C 209.734115 71.2137 208.904215 71.0738 208.074215 70.9538C 207.954215 70.9338 207.834215 70.9138 207.724215 70.8938C 175.684215 66.1338 142.094115 74.3738 115.434115 95.5838C 115.344115 95.6438 115.254215 95.7237 115.164215 95.7937C 114.624215 96.2237 114.084215 96.6637 113.544215 97.1037C 113.174215 97.4237 112.784115 97.7438 112.394115 98.0638C 112.124115 98.2938 111.864115 98.5237 111.594115 98.7537C 110.974115 99.2937 110.354215 99.8438 109.724215 100.3938C 109.684215 100.4338 109.634215 100.4838 109.574215 100.5238C 105.834215 103.8938 102.274215 107.5338 98.944215 111.4238C 98.914215 111.4638 98.884215 111.4937 98.854215 111.5337C 98.354215 112.1337 97.854115 112.7338 97.344115 113.3338C 97.134115 113.5838 96.924215 113.8438 96.724215 114.0938C 96.434215 114.4538 96.144215 114.8138 95.854215 115.1738C 95.444215 115.6938 95.034215 116.2237 94.634215 116.7537C 94.574215 116.8337 94.504115 116.9237 94.434115 117.0037C 84.474115 130.1037 77.554115 144.7738 73.694115 160.0638C 73.664115 160.1638 73.644115 160.2537 73.614115 160.3537C 73.424115 161.1537 73.224115 161.9637 73.044115 162.7537C 72.994115 162.9337 72.964215 163.1038 72.914215 163.2738C 72.744215 164.0238 72.594115 164.7837 72.444115 165.5337C 72.404115 165.7437 72.354115 165.9638 72.314115 166.1738C 72.154115 166.9338 72.014115 167.6838 71.884115 168.4438C 71.844115 168.6538 71.814115 168.8437 71.774115 169.0337C 71.634115 169.8637 71.494115 170.6937 71.374115 171.5337C 71.364115 171.6437 71.334115 171.7638 71.324115 171.8838C 66.564115 203.9238 74.804215 237.5138 96.014215 264.1738C 96.074215 264.2638 96.154215 264.3538 96.224215 264.4438C 96.654215 264.9838 97.094115 265.5238 97.534115 266.0638C 97.854115 266.4338 98.174115 266.8237 98.494115 267.2137C 98.724115 267.4837 98.954115 267.7438 99.184115 268.0138C 99.724115 268.6338 100.274215 269.2538 100.824215 269.8838C 100.864215 269.9238 100.914115 269.9737 100.954115 270.0337C 104.324115 273.7737 107.964215 277.3337 111.854215 280.6637C 111.894215 280.6937 111.924115 280.7238 111.964115 280.7538C 112.564115 281.2538 113.164215 281.7538 113.764215 282.2638C 114.014215 282.4738 114.274115 282.6838 114.524115 282.8838C 114.884115 283.1738 115.244215 283.4638 115.604215 283.7538C 116.124215 284.1638 116.654115 284.5737 117.174115 284.9737C 117.254115 285.0437 117.354115 285.1037 117.434115 285.1837C 130.534115 295.1437 145.204115 302.0637 160.494115 305.9237C 160.594115 305.9537 160.684115 305.9738 160.784115 306.0038C 161.594115 306.2038 162.394215 306.3938 163.194215 306.5738C 163.364215 306.6138 163.544115 306.6538 163.714115 306.6938C 164.464115 306.8638 165.224215 307.0137 165.974215 307.1737C 166.184215 307.2137 166.394215 307.2637 166.604215 307.2937C 167.364215 307.4537 168.114115 307.5937 168.874115 307.7237C 169.074115 307.7637 169.274115 307.7937 169.464115 307.8337C 170.294115 307.9737 171.124115 308.1137 171.964115 308.2337C 172.074115 308.2437 172.194115 308.2737 172.314115 308.2837C 204.354115 313.0437 237.944115 304.8037 264.594115 283.5937C 264.694115 283.5237 264.784115 283.4437 264.874115 283.3637C 265.414115 282.9437 265.944215 282.5038 266.484215 282.0638C 266.854215 281.7438 267.244215 281.4237 267.634215 281.1037C 267.904215 280.8737 268.164115 280.6437 268.434115 280.4137C 269.064115 279.8737 269.674115 279.3237 270.304115 278.7737C 270.354115 278.7237 270.394115 278.6837 270.454115 278.6437C 274.194115 275.2737 277.754115 271.6337 281.084115 267.7437C 281.114115 267.7037 281.144115 267.6738 281.174115 267.6338C 281.674115 267.0338 282.174115 266.4337 282.684115 265.8337C 282.894115 265.5837 283.104115 265.3238 283.304115 265.0738L 284.174115 263.9938C 284.584115 263.4738 284.994115 262.9438 285.394115 262.4238C 285.464115 262.3438 285.524215 262.2437 285.604215 262.1637C 294.744215 250.1437 301.314115 236.8237 305.304115 222.8937C 309.054115 225.1637 312.614115 227.8838 315.894115 231.0638L 329.404115 244.1338L 305.924115 220.6537C 306.064115 220.1437 306.204115 219.6238 306.334115 219.1138C 306.364115 219.0138 306.394215 218.9138 306.414215 218.8138C 306.614215 218.0038 306.804215 217.2037 306.984215 216.4137C 307.024215 216.2437 307.064115 216.0637 307.114115 215.8937C 307.284115 215.1437 307.444115 214.3938 307.584115 213.6338C 307.624115 213.4238 307.674115 213.2038 307.714115 212.9938C 307.864115 212.2538 308.004215 211.4837 308.134215 210.7337C 308.174215 210.5337 308.214115 210.3338 308.244115 210.1238C 308.384115 209.3038 308.524115 208.4737 308.644115 207.6537C 308.664115 207.5337 308.684115 207.4138 308.704115 207.3038C 308.754115 206.9838 308.794115 206.6637 308.834115 206.3337C 312.444115 176.2437 339.654115 156.7837 367.464115 159.4737C 371.704115 184.2537 370.804115 210.2938 363.904115 236.1238C 338.614115 330.6538 243.444115 387.4338 148.274115 364.7038L 148.284115 364.6837ZM 429.324215 67.354L 642.093715 127.244"></path></g></g></g><g id="g-root-cp_2_g-2_hzn7q914km87j-stroke" data-item-order="-710514" transform="translate(157.93362426757812, 300.642578125)"><g id="cp_2_g-2_hzn7q914km87j-stroke" fill="none" stroke-linecap="round" stroke-linejoin="round" stroke-miterlimit="4" stroke="#43dd93" stroke-width="2"><g><path d="M 568.066864 245.053604C 571.380585 245.053604 574.066864 242.359314 574.066864 239.035782C 574.066864 235.712235 571.380585 233.01796 568.066864 233.01796C 564.753144 233.01796 562.066864 235.712235 562.066864 239.035782C 562.066864 242.359314 564.753144 245.053604 568.066864 245.053604ZM 248.817368 147.153641C 248.777375 147.484604 248.737274 147.805451 248.687271 148.126419C 248.677277 148.23674 248.647263 148.357208 248.627274 148.477554C 248.507263 149.310028 248.377365 150.132355 248.227371 150.954788C 248.187363 151.165421 248.157273 151.366013 248.117264 151.566605C 247.987274 152.318833 247.847367 153.081101 247.697373 153.833328C 247.657364 154.04393 247.607376 154.264588 247.567368 154.47522C 247.417374 155.237473 247.267365 155.989807 247.097367 156.742035C 247.057373 156.912537 247.017273 157.092972 246.96727 157.263474C 246.787277 158.065857 246.597275 158.86824 246.397263 159.670609C 246.367264 159.770905 246.337372 159.871216 246.317368 159.971497C 246.187363 160.493042 246.047272 161.004669 245.907273 161.516174L 173.117264 88.509934C 149.46727 64.789681 110.817269 64.217888 87.307267 88.088593C 63.517269 112.250153 64.25737 151.60672 89.547371 174.81546C 112.797371 196.158676 149.14737 195.586975 171.767365 173.571777C 172.067368 173.28093 172.367371 172.980026 172.667374 172.689179C 192.237366 152.850418 222.417374 149.871689 245.287369 163.762833C 241.297364 177.734207 234.727265 191.093674 225.587265 203.149384C 225.517273 203.22963 225.457276 203.32991 225.377274 203.410156C 224.977265 203.931702 224.567276 204.463272 224.157273 204.984833L 223.287369 206.068131C 223.087372 206.318878 222.877365 206.579651 222.667374 206.830399C 222.167374 207.432175 221.667267 208.033844 221.157273 208.635636C 221.117264 208.675751 221.097367 208.695816 221.067368 208.745972C 217.727371 212.647522 214.177277 216.298432 210.437271 219.678452C 210.377274 219.718567 210.337372 219.758682 210.287369 219.808823C 209.667374 220.360458 209.047364 220.911987 208.417374 221.453598C 208.14737 221.684281 207.887268 221.914963 207.617264 222.145661C 207.237274 222.476639 206.847275 222.787552 206.46727 223.108505C 205.927277 223.549805 205.39737 223.99112 204.857376 224.412369C 204.767365 224.4926 204.677368 224.572937 204.577378 224.643143C 177.927368 245.916168 144.327378 254.170609 112.297371 249.406494C 112.187371 249.396454 112.067368 249.366287 111.947373 249.356247C 111.117371 249.225861 110.287369 249.095581 109.447373 248.95517C 109.25737 248.915039 109.067368 248.884949 108.857369 248.844833C 108.097367 248.714447 107.347267 248.573929 106.587273 248.413468C 106.377266 248.373337 106.167366 248.333222 105.957367 248.293091C 105.197373 248.13263 104.447373 247.982178 103.697373 247.811676C 103.527367 247.771561 103.347267 247.731537 103.177269 247.691406C 102.367272 247.51088 101.567368 247.320206 100.767372 247.119614C 100.667366 247.089539 100.57737 247.069473 100.477371 247.039383C 85.187371 243.167908 70.527371 236.227356 57.41737 226.237778C 57.337368 226.167557 57.237271 226.107498 57.157269 226.027252C 56.637268 225.626053 56.10727 225.214737 55.587269 224.803528C 55.227268 224.512665 54.867371 224.221802 54.50737 223.930939C 54.25737 223.730347 53.997269 223.519821 53.747269 223.309204C 53.14727 222.807709 52.547371 222.306137 51.947369 221.794617C 51.907372 221.754501 51.887268 221.734436 51.837269 221.704346C 47.94727 218.354431 44.30727 214.793976 40.937269 211.042877C 40.89727 210.982697 40.847269 210.932434 40.80727 210.892319C 40.257269 210.270493 39.707369 209.648743 39.16737 209.016861C 38.937371 208.746063 38.707369 208.485291 38.47737 208.214493C 38.14737 207.833374 37.83737 207.442108 37.51737 207.060974C 37.07737 206.519364 36.637369 205.987793 36.207369 205.436157C 36.137369 205.355927 36.05727 205.255631 35.997271 205.16536C 14.78727 178.426163 6.54737 144.736374 11.30737 112.601196C 11.31737 112.490868 11.34727 112.370606 11.35727 112.25026C 11.48727 111.417786 11.61737 110.58532 11.75737 109.742828C 11.79737 109.552261 11.82737 109.361595 11.86737 109.150971C 11.99737 108.38871 12.13727 107.636482 12.29727 106.874237C 12.33727 106.663605 12.37727 106.45298 12.42727 106.232323C 12.58727 105.480095 12.72737 104.717842 12.89737 103.965614C 12.93737 103.795113 12.97737 103.614578 13.02737 103.444069C 13.20737 102.641693 13.39727 101.829285 13.59727 101.036942C 13.62727 100.936638 13.64727 100.846375 13.67727 100.746079C 17.53727 85.41066 24.45737 70.707104 34.41737 57.558163C 34.48737 57.477924 34.54727 57.377628 34.61727 57.307419C 35.017269 56.775841 35.427269 56.254402 35.837269 55.722824C 36.12727 55.361759 36.41737 55.000584 36.707369 54.639519C 36.90737 54.388775 37.117371 54.128101 37.32737 53.877358C 37.82737 53.275578 38.327271 52.673691 38.837269 52.071911C 38.87727 52.031792 38.89727 52.011833 38.927269 51.961685C 42.267269 48.060127 45.817269 44.409214 49.55727 41.029204C 49.617272 40.989086 49.66737 40.939037 49.707371 40.898918C 50.32737 40.347284 50.947369 39.79555 51.57737 39.253945C 51.84737 39.023262 52.10727 38.79258 52.37727 38.561897C 52.757271 38.230917 53.14727 37.919994 53.527272 37.599045C 54.067269 37.157736 54.597271 36.716431 55.14727 36.285153C 55.227268 36.214945 55.32737 36.134808 55.41737 36.074629C 82.07737 14.801621 115.667366 6.537142 147.707367 11.311283C 147.817368 11.321312 147.937271 11.351402 148.057267 11.371461C 148.887268 11.491817 149.707367 11.622103 150.537369 11.772549C 150.747376 11.812668 150.947266 11.842757 151.147263 11.882876C 151.907273 12.013262 152.657273 12.153678 153.407273 12.304123C 153.617264 12.344242 153.837372 12.394391 154.047364 12.43451C 154.807373 12.584955 155.557267 12.735401 156.307267 12.905906C 156.477265 12.946025 156.657364 12.986244 156.827378 13.036392C 157.627365 13.216927 158.427368 13.407391 159.227371 13.607985C 159.327378 13.638074 159.427277 13.668163 159.527268 13.688223C 170.767273 16.536659 181.687363 21.050028 191.887375 27.218296L 338.097382 111.869125L 327.727265 106.322594C 321.157257 102.80217 314.287384 100.796227 307.457367 100.13427C 279.64737 97.436272 252.447373 116.954086 248.827378 147.133469L 248.817368 147.153641ZM 338.087372 111.889687L 559.13675 233.860657"></path></g></g></g><g id="g-root-cp_1_g-1_1lyn7xd14km8so-stroke" data-item-order="-710510" transform="translate(217.93753051757812, 360.923828125)"><g id="cp_1_g-1_1lyn7xd14km8so-stroke" fill="none" stroke-linecap="round" stroke-linejoin="round" stroke-miterlimit="4" stroke="#b7b7b7" stroke-width="2"><g><path d="M 424.061462 339.152191C 427.375183 339.152191 430.061462 336.473389 430.061462 333.168976C 430.061462 329.864563 427.375183 327.185791 424.061462 327.185791C 420.747772 327.185791 418.061462 329.864563 418.061462 333.168976C 418.061462 336.473389 420.747772 339.152191 424.061462 339.152191ZM 113.111969 27.955296C 89.461967 4.371501 50.811969 3.803097 27.301969 27.536471C 3.511969 51.559036 4.251969 90.689186 29.541969 113.764412C 52.791969 134.984841 89.141967 134.416435 111.76197 112.527878C 112.061965 112.238693 112.361969 111.93953 112.661972 111.650345C 132.231971 91.925713 162.411972 88.964028 185.281967 102.775253C 189.031967 105.038902 192.591964 107.751289 195.871963 110.922379L 209.381973 123.955803L 113.111969 27.955296ZM 197.271972 111.870331L 416.741455 325.869476"></path></g></g></g><g id="g-root-tx_systemar_18nt6n514km77t-stroke" data-item-order="0" transform="translate(380, 38)"></g><g id="g-root-tx_applicat_24gdd14kp0jk-stroke" data-item-order="0" transform="translate(734, 169)"></g><g id="g-root-tx_userleve_1uonye914kp2ix-stroke" data-item-order="0" transform="translate(734, 205)"></g><g id="g-root-tx_shell_hvwd7l14knocs-stroke" data-item-order="0" transform="translate(758, 349)"></g><g id="g-root-tx_interfac_hxrsgx14knnd1-stroke" data-item-order="0" transform="translate(758, 385)"></g><g id="g-root-tx_kernel_9407hd14knn5y-stroke" data-item-order="0" transform="translate(734, 517)"></g><g id="g-root-tx_coreosma_4g2j8h14kp0r3-stroke" data-item-order="0" transform="translate(734, 553)"></g><g id="g-root-tx_hardware_v48i5d14knmde-stroke" data-item-order="0" transform="translate(650, 673)"></g><g id="g-root-tx_foundati_magx5t14knm6b-stroke" data-item-order="0" transform="translate(650, 709)"></g></g></g><path id="w4hbnki172mtqf" d="M65.283 12.757a.35.35 0 0 0 .584.157l5.203-5.141-6.183 3.523.396 1.461zm-2.216-11.7a.35.35 0 0 0-.522.305v3.111l3.276-1.868-2.754-1.548zm3.728 2.105l-4.25 2.421v2.445l6.391-3.644-2.141-1.222zm4.708 3.303a.35.35 0 0 0 0-.609l-1.592-.9-7.365 4.199v1.782a.35.35 0 0 0 .523.305l8.435-4.777z M44.542 2.513c0-.433.355-.783.792-.783s.792.35.792.783-.355.783-.792.783-.792-.35-.792-.783zm59.171 0c0-.433.355-.783.792-.783s.792.35.792.783-.355.783-.792.783-.792-.35-.792-.783zm-85.951 7.636h-1.27v-.487c-.276.201-.864.609-1.881.609-1.202 0-2.274-.794-2.137-2.078.118-1.106 1.153-1.584 1.848-1.727l2.17-.345c0-.539-.29-.956-1.064-1.006s-1.21.305-1.571 1.017l-1.124-.605c1.218-2.631 5.029-1.764 5.029.414v4.207zm-1.27-2.86c.006.396-.062 1.112-.819 1.59-.587.37-1.841.299-1.903-.395-.049-.555.461-.791.906-.898l1.816-.297zm72.662 2.86h-1.27v-.487c-.276.201-.864.609-1.881.609-1.202 0-2.274-.794-2.137-2.078.118-1.106 1.153-1.584 1.848-1.727l2.17-.345c0-.539-.29-.956-1.064-1.006s-1.21.305-1.571 1.017l-1.124-.605c1.218-2.631 5.029-1.764 5.029.414v4.207zm-1.27-2.86c.006.396-.062 1.112-.82 1.59-.587.37-1.841.299-1.903-.395-.049-.555.461-.791.906-.898l1.816-.297zM99.096 10.149H97.85v-8.45h1.246v4.895l2.68-2.559h1.738l-2.633 2.535 2.715 3.578h-1.556l-2.077-2.707-.867.844v1.863zm6.053-6.114h-1.255v6.113h1.255V4.035zm-59.2 0h-1.255v6.113h1.255V4.035zm5.584 6.113V1.697h1.255v2.695c.361-.346 1-.485 1.47-.485 1.452 0 2.477 1.082 2.457 2.448v3.792h-1.27v-3.68c0-.408-.214-1.339-1.315-1.339-.968 0-1.342.756-1.342 1.339v3.681h-1.255zm-4.76-4.894V4.039h.621a.45.45 0 0 0 .45-.45v-.855h1.251v1.305h1.309v1.215h-1.309v3.109c0 .293.105.664.648.664.365 0 .531-.035.736-.07v1.137s-.361.113-.857.113c-1.398 0-1.777-1.051-1.777-1.788V5.254h-1.071zM36.528 4.039h-1.394l2.191 6.106h1.125l1.234-3.918 1.238 3.918h1.129l2.188-6.106h-1.383l-1.359 3.93-1.256-3.93h-1.124l-1.242 3.957-1.348-3.957zM26.212 7.141c-.02 1.566 1.187 3.129 3.223 3.129 1.566 0 2.383-.918 2.734-1.719L31.172 8c-.315.399-.801 1.094-1.738 1.094-1.145 0-1.825-.781-1.891-1.52h4.625c.074-.284.148-.995-.03-1.559-.336-1.064-1.221-2.102-2.839-2.102s-3.088 1.152-3.088 3.227zm1.363-.75h3.348c-.055-.43-.566-1.301-1.623-1.301a1.79 1.79 0 0 0-1.725 1.301zm-8.758.75c.038 1.758 1.277 3.133 3.145 3.133 1.074 0 1.723-.477 1.961-.672v.547h1.242V1.703h-1.258v2.888c-.414-.36-1.062-.68-1.93-.68-1.91 0-3.198 1.473-3.16 3.23zm1.309-.08c0 1.119.723 1.978 1.836 1.978a1.88 1.88 0 0 0 1.94-1.904c0-1.371-1.011-1.99-1.972-1.99s-1.805.798-1.805 1.916zm76.683-.028C96.771 5.275 95.532 3.9 93.664 3.9c-1.074 0-1.723.477-1.961.672v-.547h-1.242v8.22h1.258V9.583c.414.36 1.063.68 1.93.68 1.91 0 3.198-1.473 3.16-3.23zm-1.309.08c0-1.119-.723-1.978-1.836-1.978a1.88 1.88 0 0 0-1.94 1.904c0 1.371 1.011 1.99 1.972 1.99S95.5 8.231 95.5 7.113zM106.441 10.173V4.036h1.254v.382c.361-.346 1-.485 1.47-.485 1.452 0 2.477 1.082 2.457 2.448v3.792h-1.27V6.492c0-.408-.214-1.339-1.315-1.339-.969 0-1.342.756-1.342 1.339v3.681h-1.254zm-30.383-.021V1.824h1.084l4.215 5.777V1.824h1.32v8.328h-1.094l-4.207-5.796v5.796h-1.319zM5.24 10.149H4V2.377h1.014l2.664 3.597 2.654-3.592h1.03v7.766h-1.256V4.762L7.678 8.068 5.24 4.742v5.407z" transform="translate(884, 793)" fill="#ababab88" stroke="none"></path></svg>